<svg width="251" height="114" viewBox="0 0 251 114" fill="none" xmlns="http://www.w3.org/2000/svg">
<path d="M34.4297 103.5H20.625V101.836C21 101.805 21.5391 101.758 22.2422 101.695C22.9609 101.633 23.4531 101.539 23.7188 101.414C24.1875 101.227 24.5312 100.945 24.75 100.57C24.9688 100.18 25.0781 99.6797 25.0781 99.0703V87.2344H9.44531V98.8125C9.44531 99.3594 9.53125 99.8203 9.70312 100.195C9.89062 100.57 10.25 100.898 10.7812 101.18C11.0469 101.32 11.5156 101.461 12.1875 101.602C12.875 101.742 13.4141 101.82 13.8047 101.836V103.5H0V101.836C0.375 101.805 0.914062 101.758 1.61719 101.695C2.33594 101.633 2.82812 101.539 3.09375 101.414C3.5625 101.227 3.90625 100.945 4.125 100.57C4.34375 100.18 4.45312 99.6797 4.45312 99.0703V75.0703C4.45312 74.5703 4.35156 74.1172 4.14844 73.7109C3.94531 73.2891 3.59375 72.9609 3.09375 72.7266C2.67188 72.5234 2.15625 72.3438 1.54688 72.1875C0.953125 72.0312 0.4375 71.9375 0 71.9062V70.2422H13.8047V71.9062C13.3672 71.9219 12.8281 71.9922 12.1875 72.1172C11.5625 72.2422 11.0938 72.3594 10.7812 72.4688C10.25 72.6562 9.89062 72.9688 9.70312 73.4062C9.53125 73.8438 9.44531 74.3203 9.44531 74.8359V85.1484H25.0781V75.0703C25.0781 74.5703 24.9766 74.1172 24.7734 73.7109C24.5703 73.2891 24.2188 72.9609 23.7188 72.7266C23.2969 72.5234 22.7812 72.3438 22.1719 72.1875C21.5781 72.0312 21.0625 71.9375 20.625 71.9062V70.2422H34.4297V71.9062C33.9922 71.9219 33.4531 71.9922 32.8125 72.1172C32.1875 72.2422 31.7188 72.3594 31.4062 72.4688C30.875 72.6562 30.5156 72.9688 30.3281 73.4062C30.1562 73.8438 30.0703 74.3203 30.0703 74.8359V98.8125C30.0703 99.3594 30.1562 99.8203 30.3281 100.195C30.5156 100.57 30.875 100.898 31.4062 101.18C31.6719 101.32 32.1406 101.461 32.8125 101.602C33.5 101.742 34.0391 101.82 34.4297 101.836V103.5Z" fill="#557571"/>
<path d="M36.7734 111.047C36.7734 110.266 36.9844 109.625 37.4062 109.125C37.8438 108.641 38.3828 108.398 39.0234 108.398C39.5234 108.398 39.9531 108.492 40.3125 108.68C40.6719 108.867 40.9922 109.109 41.2734 109.406C41.5078 109.641 41.7578 109.961 42.0234 110.367C42.2891 110.773 42.5 111.109 42.6562 111.375C43.4375 110.953 44.3672 109.852 45.4453 108.07C46.5391 106.289 47.3281 104.727 47.8125 103.383C46.3281 99.6797 44.9844 96.3672 43.7812 93.4453C42.5781 90.5234 41.3203 87.5 40.0078 84.375C39.7109 83.6562 39.2109 83.1016 38.5078 82.7109C37.8047 82.3047 37.1016 82.0469 36.3984 81.9375V80.3906H46.9453V82.0312C46.4766 82.0469 45.9141 82.1484 45.2578 82.3359C44.6016 82.5078 44.2734 82.7109 44.2734 82.9453C44.2734 83.0391 44.3047 83.1953 44.3672 83.4141C44.4453 83.6328 44.5312 83.8594 44.625 84.0938C45.2188 85.6406 46.125 87.875 47.3438 90.7969C48.5625 93.7031 49.5078 96.0312 50.1797 97.7812C50.8828 96.1094 51.6094 94.3828 52.3594 92.6016C53.125 90.8047 53.9766 88.6875 54.9141 86.25C55.0234 85.9531 55.1797 85.5469 55.3828 85.0312C55.5859 84.5 55.6875 84.0469 55.6875 83.6719C55.6875 83.2656 55.3281 82.8906 54.6094 82.5469C53.9062 82.1875 53.2344 81.9688 52.5938 81.8906V80.3906H61.1719V81.8438C60.7031 81.9219 60.0859 82.1953 59.3203 82.6641C58.5547 83.1172 57.9844 83.7656 57.6094 84.6094C55.75 88.9219 54.0938 92.8516 52.6406 96.3984C51.2031 99.9453 50.1094 102.555 49.3594 104.227C48.375 106.414 47.4922 108.117 46.7109 109.336C45.9453 110.57 45.1953 111.539 44.4609 112.242C43.7422 112.898 43.0859 113.336 42.4922 113.555C41.9141 113.789 41.3125 113.906 40.6875 113.906C39.4688 113.906 38.5078 113.617 37.8047 113.039C37.1172 112.461 36.7734 111.797 36.7734 111.047Z" fill="#557571"/>
<path d="M87.4688 103.078L79.4062 103.594L79.0547 103.266V101.109L78.8672 101.062C78.0547 101.969 77.0469 102.711 75.8438 103.289C74.6562 103.867 73.4297 104.156 72.1641 104.156C70.8516 104.156 69.5781 103.867 68.3438 103.289C67.125 102.695 66.0625 101.867 65.1562 100.805C64.2344 99.7266 63.5 98.4297 62.9531 96.9141C62.4219 95.3984 62.1562 93.7266 62.1562 91.8984C62.1562 90.2266 62.4453 88.6406 63.0234 87.1406C63.6016 85.6406 64.3984 84.3281 65.4141 83.2031C66.3672 82.1562 67.5312 81.3203 68.9062 80.6953C70.2969 80.0703 71.7109 79.7578 73.1484 79.7578C74.2266 79.7578 75.2812 79.8984 76.3125 80.1797C77.3594 80.4453 78.2578 80.7891 79.0078 81.2109V73.1719C79.0078 72.5156 78.8984 71.9219 78.6797 71.3906C78.4609 70.8438 78.1562 70.4297 77.7656 70.1484C77.3281 69.8516 76.7344 69.6406 75.9844 69.5156C75.25 69.375 74.4531 69.2734 73.5938 69.2109V67.7578L83.0391 67.2188L83.3906 67.5703V98.7422C83.3906 99.2891 83.4922 99.7578 83.6953 100.148C83.9141 100.523 84.2266 100.844 84.6328 101.109C84.9297 101.297 85.3594 101.414 85.9219 101.461C86.4844 101.508 87 101.539 87.4688 101.555V103.078ZM79.0078 99.0234V85.5C78.8828 85.0938 78.6797 84.6562 78.3984 84.1875C78.1172 83.7188 77.7656 83.2891 77.3438 82.8984C76.8906 82.5078 76.3594 82.1875 75.75 81.9375C75.1406 81.6719 74.4297 81.5391 73.6172 81.5391C72.6797 81.5391 71.8125 81.7812 71.0156 82.2656C70.2344 82.75 69.5391 83.4453 68.9297 84.3516C68.3516 85.2266 67.8906 86.3438 67.5469 87.7031C67.2188 89.0469 67.0547 90.5391 67.0547 92.1797C67.0547 93.4922 67.1797 94.6875 67.4297 95.7656C67.6797 96.8281 68.1016 97.8203 68.6953 98.7422C69.2422 99.6172 69.9375 100.32 70.7812 100.852C71.6406 101.383 72.6562 101.648 73.8281 101.648C75.0781 101.648 76.1094 101.375 76.9219 100.828C77.75 100.281 78.4453 99.6797 79.0078 99.0234Z" fill="#557571"/>
<path d="M107.414 83.3672C107.414 84.1641 107.219 84.875 106.828 85.5C106.438 86.1094 105.836 86.4141 105.023 86.4141C104.148 86.4141 103.477 86.1875 103.008 85.7344C102.555 85.2812 102.328 84.7812 102.328 84.2344C102.328 83.8906 102.352 83.5781 102.398 83.2969C102.461 83.0156 102.516 82.7344 102.562 82.4531C101.828 82.4531 100.969 82.75 99.9844 83.3438C99 83.9375 98.1641 84.7812 97.4766 85.875V99.3281C97.4766 99.875 97.5781 100.32 97.7812 100.664C98 101.008 98.3359 101.266 98.7891 101.438C99.1797 101.594 99.6797 101.711 100.289 101.789C100.914 101.867 101.453 101.922 101.906 101.953V103.5H89.7188V101.953C90.0781 101.922 90.4453 101.891 90.8203 101.859C91.2109 101.828 91.5469 101.766 91.8281 101.672C92.2656 101.531 92.5859 101.289 92.7891 100.945C93.0078 100.586 93.1172 100.125 93.1172 99.5625V85.2891C93.1172 84.8047 93 84.3281 92.7656 83.8594C92.5469 83.3906 92.2344 83.0156 91.8281 82.7344C91.5312 82.5469 91.1797 82.4141 90.7734 82.3359C90.3672 82.2422 89.9297 82.1797 89.4609 82.1484V80.625L97.1484 80.1094L97.4766 80.4375V83.6953H97.5938C98.5625 82.4297 99.6406 81.4688 100.828 80.8125C102.016 80.1562 103.102 79.8281 104.086 79.8281C105.07 79.8281 105.867 80.1484 106.477 80.7891C107.102 81.4297 107.414 82.2891 107.414 83.3672Z" fill="#557571"/>
<path d="M131.93 91.7109C131.93 93.3359 131.672 94.9375 131.156 96.5156C130.641 98.0781 129.906 99.4062 128.953 100.5C127.875 101.75 126.625 102.68 125.203 103.289C123.781 103.898 122.188 104.203 120.422 104.203C118.953 104.203 117.555 103.93 116.227 103.383C114.898 102.82 113.719 102.008 112.688 100.945C111.672 99.8984 110.859 98.625 110.25 97.125C109.656 95.6094 109.359 93.9141 109.359 92.0391C109.359 88.4297 110.406 85.4766 112.5 83.1797C114.609 80.8828 117.367 79.7344 120.773 79.7344C124.008 79.7344 126.672 80.8281 128.766 83.0156C130.875 85.1875 131.93 88.0859 131.93 91.7109ZM127.078 91.7578C127.078 90.5859 126.961 89.3516 126.727 88.0547C126.492 86.7422 126.141 85.6328 125.672 84.7266C125.172 83.7578 124.516 82.9844 123.703 82.4062C122.891 81.8125 121.898 81.5156 120.727 81.5156C119.523 81.5156 118.492 81.8125 117.633 82.4062C116.789 83 116.102 83.8125 115.57 84.8438C115.07 85.7969 114.719 86.8828 114.516 88.1016C114.312 89.3203 114.211 90.5 114.211 91.6406C114.211 93.1406 114.328 94.5312 114.562 95.8125C114.812 97.0781 115.203 98.2109 115.734 99.2109C116.266 100.211 116.93 101 117.727 101.578C118.539 102.141 119.539 102.422 120.727 102.422C122.68 102.422 124.227 101.477 125.367 99.5859C126.508 97.6953 127.078 95.0859 127.078 91.7578Z" fill="#557571"/>
<path d="M168.07 90.2109C167.695 90.2578 167.188 90.3359 166.547 90.4453C165.922 90.5391 165.414 90.6797 165.023 90.8672C164.555 91.1016 164.219 91.4375 164.016 91.875C163.828 92.2969 163.734 92.7969 163.734 93.375V95.9531C163.734 97.8281 163.742 99.0938 163.758 99.75C163.789 100.406 163.82 100.945 163.852 101.367C161.773 102.305 159.703 103.023 157.641 103.523C155.578 104.023 153.555 104.273 151.57 104.273C149.445 104.273 147.398 103.875 145.43 103.078C143.461 102.281 141.742 101.148 140.273 99.6797C138.789 98.1953 137.609 96.3906 136.734 94.2656C135.859 92.1406 135.422 89.7656 135.422 87.1406C135.422 84.6094 135.836 82.2656 136.664 80.1094C137.508 77.9375 138.695 76.0547 140.227 74.4609C141.711 72.8984 143.477 71.6875 145.523 70.8281C147.586 69.9531 149.789 69.5156 152.133 69.5156C154.008 69.5156 155.641 69.7422 157.031 70.1953C158.422 70.6484 159.648 71.1953 160.711 71.8359L161.672 70.2422H163.547L163.758 81.8672H161.836C161.508 80.5859 161.102 79.3281 160.617 78.0938C160.133 76.8438 159.508 75.7266 158.742 74.7422C157.977 73.7578 157.039 72.9766 155.93 72.3984C154.836 71.8047 153.523 71.5078 151.992 71.5078C150.32 71.5078 148.828 71.8516 147.516 72.5391C146.203 73.2109 145.062 74.2188 144.094 75.5625C143.141 76.8594 142.406 78.4766 141.891 80.4141C141.375 82.3516 141.117 84.5156 141.117 86.9062C141.117 89.0156 141.367 91.0078 141.867 92.8828C142.383 94.7422 143.125 96.3516 144.094 97.7109C145.062 99.1016 146.273 100.195 147.727 100.992C149.18 101.789 150.828 102.188 152.672 102.188C154.047 102.188 155.297 101.977 156.422 101.555C157.562 101.133 158.367 100.688 158.836 100.219C158.961 99.4062 159.023 98.5859 159.023 97.7578C159.039 96.9297 159.047 96.2266 159.047 95.6484V93.8203C159.047 93.1641 158.953 92.5859 158.766 92.0859C158.594 91.5703 158.227 91.1953 157.664 90.9609C157.148 90.7266 156.445 90.5547 155.555 90.4453C154.68 90.3203 153.992 90.2422 153.492 90.2109V88.5H168.07V90.2109Z" fill="#557571"/>
<path d="M187.805 83.3672C187.805 84.1641 187.609 84.875 187.219 85.5C186.828 86.1094 186.227 86.4141 185.414 86.4141C184.539 86.4141 183.867 86.1875 183.398 85.7344C182.945 85.2812 182.719 84.7812 182.719 84.2344C182.719 83.8906 182.742 83.5781 182.789 83.2969C182.852 83.0156 182.906 82.7344 182.953 82.4531C182.219 82.4531 181.359 82.75 180.375 83.3438C179.391 83.9375 178.555 84.7812 177.867 85.875V99.3281C177.867 99.875 177.969 100.32 178.172 100.664C178.391 101.008 178.727 101.266 179.18 101.438C179.57 101.594 180.07 101.711 180.68 101.789C181.305 101.867 181.844 101.922 182.297 101.953V103.5H170.109V101.953C170.469 101.922 170.836 101.891 171.211 101.859C171.602 101.828 171.938 101.766 172.219 101.672C172.656 101.531 172.977 101.289 173.18 100.945C173.398 100.586 173.508 100.125 173.508 99.5625V85.2891C173.508 84.8047 173.391 84.3281 173.156 83.8594C172.938 83.3906 172.625 83.0156 172.219 82.7344C171.922 82.5469 171.57 82.4141 171.164 82.3359C170.758 82.2422 170.32 82.1797 169.852 82.1484V80.625L177.539 80.1094L177.867 80.4375V83.6953H177.984C178.953 82.4297 180.031 81.4688 181.219 80.8125C182.406 80.1562 183.492 79.8281 184.477 79.8281C185.461 79.8281 186.258 80.1484 186.867 80.7891C187.492 81.4297 187.805 82.2891 187.805 83.3672Z" fill="#557571"/>
<path d="M212.32 91.7109C212.32 93.3359 212.062 94.9375 211.547 96.5156C211.031 98.0781 210.297 99.4062 209.344 100.5C208.266 101.75 207.016 102.68 205.594 103.289C204.172 103.898 202.578 104.203 200.812 104.203C199.344 104.203 197.945 103.93 196.617 103.383C195.289 102.82 194.109 102.008 193.078 100.945C192.062 99.8984 191.25 98.625 190.641 97.125C190.047 95.6094 189.75 93.9141 189.75 92.0391C189.75 88.4297 190.797 85.4766 192.891 83.1797C195 80.8828 197.758 79.7344 201.164 79.7344C204.398 79.7344 207.062 80.8281 209.156 83.0156C211.266 85.1875 212.32 88.0859 212.32 91.7109ZM207.469 91.7578C207.469 90.5859 207.352 89.3516 207.117 88.0547C206.883 86.7422 206.531 85.6328 206.062 84.7266C205.562 83.7578 204.906 82.9844 204.094 82.4062C203.281 81.8125 202.289 81.5156 201.117 81.5156C199.914 81.5156 198.883 81.8125 198.023 82.4062C197.18 83 196.492 83.8125 195.961 84.8438C195.461 85.7969 195.109 86.8828 194.906 88.1016C194.703 89.3203 194.602 90.5 194.602 91.6406C194.602 93.1406 194.719 94.5312 194.953 95.8125C195.203 97.0781 195.594 98.2109 196.125 99.2109C196.656 100.211 197.32 101 198.117 101.578C198.93 102.141 199.93 102.422 201.117 102.422C203.07 102.422 204.617 101.477 205.758 99.5859C206.898 97.6953 207.469 95.0859 207.469 91.7578Z" fill="#557571"/>
<path d="M250.102 81.8906C249.445 81.9531 248.734 82.2266 247.969 82.7109C247.219 83.1953 246.672 83.9219 246.328 84.8906C245.547 87.1875 244.805 89.3672 244.102 91.4297C243.414 93.4766 242.641 95.7812 241.781 98.3438C241.5 99.1562 241.211 100.031 240.914 100.969C240.633 101.906 240.375 102.805 240.141 103.664H238.125L231.914 86.6484L225.656 103.664H223.734C222.562 100.195 221.414 96.7578 220.289 93.3516C219.18 89.9297 218.195 86.9531 217.336 84.4219C217.086 83.6875 216.609 83.1094 215.906 82.6875C215.203 82.2656 214.523 82.0156 213.867 81.9375V80.3906H224.18V82.0312C223.664 82.0469 223.102 82.1328 222.492 82.2891C221.898 82.4453 221.602 82.7031 221.602 83.0625C221.602 83.125 221.625 83.2578 221.672 83.4609C221.734 83.6641 221.805 83.8828 221.883 84.1172C222.383 85.7578 222.945 87.5938 223.57 89.625C224.211 91.6406 225.031 94.2656 226.031 97.5L231.938 80.8594H234.188L240.211 97.2656C240.883 95.1719 241.547 93.1484 242.203 91.1953C242.875 89.2266 243.461 87.3828 243.961 85.6641C244.07 85.2578 244.172 84.8906 244.266 84.5625C244.375 84.2188 244.43 83.8828 244.43 83.5547C244.43 83.2734 244.305 83.0234 244.055 82.8047C243.805 82.5859 243.5 82.4062 243.141 82.2656C242.828 82.1406 242.484 82.0469 242.109 81.9844C241.75 81.9219 241.484 81.8906 241.312 81.8906V80.3906H250.102V81.8906Z" fill="#557571"/>
<path d="M122.125 0C107.958 19.8333 95.6251 59.5 122.125 59.5C148.625 59.5 136.292 19.8333 122.125 0Z" fill="#557571" fill-opacity="0.5"/>
<path d="M122.125 59.5C125.125 50 122.125 0.5 122.125 0.5" stroke="#557571" stroke-width="0.2"/>
</svg>
